<svg xmlns="http://www.w3.org/2000/svg" xmlns:xlink="http://www.w3.org/1999/xlink" id="Layer_1" width="62.438" height="53.605" x="0" y="0" enable-background="new 0 0 62.438 53.605" version="1.1" viewBox="0 0 62.438 53.605" xml:space="preserve"><path fill="#fff" d="M 31.215 28.283 L 21.917 32.794 L 9.333 26.691 L 9.333 42.941 L 31.216 53.554 L 53.099 42.941 L 53.099 26.691 L 40.515 32.794 L 31.215 28.283 Z M 42.156 40.763 L 42.156 43.258 M 30.592 33.435 L 31.838 33.435 L 31.838 48.401 L 30.592 48.401 L 30.592 33.435 Z M 9.332 15.177 L 31.215 25.79 L 21.917 30.299 L 0.033 19.687 L 9.332 15.177 Z M 53.097 15.177 L 62.395 19.687 L 40.513 30.299 L 31.214 25.79 L 53.097 15.177 Z M 9.332 15.177 L 31.215 4.564 L 21.917 0.053 L 0.033 10.666 L 9.332 15.177 Z M 53.097 15.177 L 62.395 10.666 L 40.513 0.053 L 31.214 4.564 L 53.097 15.177 Z"/></svg>